<svg width="16" height="16" viewBox="0 0 16 16" fill="none" xmlns="http://www.w3.org/2000/svg">
<path d="M8.00033 13.3334H14.0003M10.0003 3.33341L12.0003 5.33341M10.9176 2.41473C11.183 2.14934 11.543 2.00024 11.9183 2.00024C12.2936 2.00024 12.6536 2.14934 12.919 2.41473C13.1844 2.68013 13.3335 3.04008 13.3335 3.4154C13.3335 3.79072 13.1844 4.15067 12.919 4.41607L4.91231 12.4234C4.75371 12.582 4.55766 12.698 4.34231 12.7607L2.42764 13.3194C2.37028 13.3361 2.30947 13.3371 2.25158 13.3223C2.1937 13.3075 2.14086 13.2774 2.09861 13.2351C2.05635 13.1929 2.02624 13.14 2.01141 13.0821C1.99658 13.0242 1.99758 12.9634 2.01431 12.9061L2.57298 10.9914C2.63579 10.7763 2.75181 10.5805 2.91031 10.4221L10.9176 2.41473Z" stroke="#5F5F5D" style="stroke:#5F5F5D;stroke:color(display-p3 0.3725 0.3725 0.3647);stroke-opacity:1;" stroke-width="1.25" stroke-linecap="round" stroke-linejoin="round"/>
</svg>
