<svg width="18" height="18" viewBox="0 0 18 18" fill="none" xmlns="http://www.w3.org/2000/svg">
<g clip-path="url(#clip0_60_349)">
<path d="M14.9999 2.24994V5.24994M16.4999 3.74994H13.4999M2.99988 12.7499V14.2499M3.74988 13.4999H2.24988M7.45258 11.6249C7.38562 11.3654 7.25034 11.1285 7.0608 10.939C6.87126 10.7494 6.63439 10.6142 6.37483 10.5472L1.77358 9.36069C1.69508 9.33841 1.62599 9.29113 1.57679 9.22603C1.52759 9.16092 1.50098 9.08155 1.50098 8.99994C1.50098 8.91834 1.52759 8.83896 1.57679 8.77386C1.62599 8.70875 1.69508 8.66147 1.77358 8.63919L6.37483 7.45194C6.63429 7.38505 6.8711 7.24987 7.06063 7.06047C7.25017 6.87107 7.38551 6.63436 7.45258 6.37494L8.63908 1.77369C8.66114 1.69488 8.70837 1.62545 8.77357 1.57599C8.83878 1.52653 8.91837 1.49976 9.00021 1.49976C9.08205 1.49976 9.16164 1.52653 9.22684 1.57599C9.29204 1.62545 9.33928 1.69488 9.36133 1.77369L10.5471 6.37494C10.614 6.6345 10.7493 6.87137 10.9389 7.06091C11.1284 7.25045 11.3653 7.38573 11.6248 7.45269L16.2261 8.63844C16.3052 8.66027 16.375 8.70745 16.4247 8.77275C16.4744 8.83805 16.5014 8.91786 16.5014 8.99994C16.5014 9.08202 16.4744 9.16183 16.4247 9.22713C16.375 9.29244 16.3052 9.33962 16.2261 9.36144L11.6248 10.5472C11.3653 10.6142 11.1284 10.7494 10.9389 10.939C10.7493 11.1285 10.614 11.3654 10.5471 11.6249L9.36058 16.2262C9.33853 16.305 9.2913 16.3744 9.22609 16.4239C9.16089 16.4734 9.0813 16.5001 8.99946 16.5001C8.91762 16.5001 8.83803 16.4734 8.77282 16.4239C8.70762 16.3744 8.66039 16.305 8.63833 16.2262L7.45258 11.6249Z" stroke="#5F5F5D" style="stroke:#5F5F5D;stroke:color(display-p3 0.3725 0.3725 0.3647);stroke-opacity:1;" stroke-width="1.25" stroke-linecap="round" stroke-linejoin="round"/>
</g>
<defs>
<clipPath id="clip0_60_349">
<rect width="18" height="18" fill="white" style="fill:white;fill-opacity:1;"/>
</clipPath>
</defs>
</svg>
