<svg width="18" height="18" viewBox="0 0 18 18" fill="none" xmlns="http://www.w3.org/2000/svg">
<path d="M6 12L7.5 7.5L12 6L10.5 10.5L6 12Z" stroke="#5F5F5D" style="stroke:#5F5F5D;stroke:color(display-p3 0.3725 0.3725 0.3647);stroke-opacity:1;" stroke-width="1.25" stroke-linecap="round" stroke-linejoin="round"/>
<path d="M9.3623 1.63379C10.207 1.67534 11.0392 1.86218 11.8223 2.18652C12.717 2.55715 13.53 3.10033 14.2148 3.78516C14.8997 4.46998 15.4428 5.28297 15.8135 6.17773C16.1841 7.07251 16.375 8.0315 16.375 9L16.3662 9.3623C16.3247 10.207 16.1378 11.0392 15.8135 11.8223C15.4428 12.717 14.8997 13.53 14.2148 14.2148C13.53 14.8997 12.717 15.4428 11.8223 15.8135C11.0392 16.1378 10.207 16.3247 9.3623 16.3662L9 16.375C8.0315 16.375 7.07251 16.1841 6.17773 15.8135C5.28297 15.4428 4.46998 14.8997 3.78516 14.2148C3.10033 13.53 2.55715 12.717 2.18652 11.8223C1.81589 10.9275 1.625 9.9685 1.625 9L1.63379 8.6377C1.67534 7.79297 1.86218 6.96077 2.18652 6.17773C2.55715 5.28297 3.10033 4.46998 3.78516 3.78516C4.46998 3.10033 5.28297 2.55715 6.17773 2.18652C7.07251 1.81589 8.0315 1.625 9 1.625L9.3623 1.63379Z" stroke="#5F5F5D" style="stroke:#5F5F5D;stroke:color(display-p3 0.3725 0.3725 0.3647);stroke-opacity:1;" stroke-width="1.25" stroke-linecap="round" stroke-linejoin="round"/>
</svg>
