<svg width="12" height="12" viewBox="0 0 12 12" fill="none" xmlns="http://www.w3.org/2000/svg">
<path d="M5.99951 9.99988H10.4995M7.49951 2.49988L8.99951 3.99988M8.1875 1.81087C8.38654 1.61182 8.65651 1.5 8.938 1.5C9.21949 1.5 9.48946 1.61182 9.6885 1.81087C9.88755 2.00991 9.99937 2.27988 9.99937 2.56137C9.99937 2.84286 9.88755 3.11282 9.6885 3.31187L3.6835 9.31737C3.56455 9.43632 3.41751 9.52333 3.256 9.57037L1.82 9.98937C1.77698 10.0019 1.73137 10.0027 1.68795 9.99155C1.64454 9.98042 1.60491 9.95783 1.57322 9.92614C1.54153 9.89445 1.51894 9.85483 1.50782 9.81141C1.4967 9.768 1.49745 9.72239 1.51 9.67937L1.929 8.24337C1.97611 8.08203 2.06312 7.93518 2.182 7.81637L8.1875 1.81087Z" stroke="#5F5F5D" style="stroke:#5F5F5D;stroke:color(display-p3 0.3725 0.3725 0.3647);stroke-opacity:1;" stroke-linecap="round" stroke-linejoin="round"/>
</svg>
