<svg width="18" height="18" viewBox="0 0 18 18" fill="none" xmlns="http://www.w3.org/2000/svg">
<g clip-path="url(#clip0_35_1102)">
<path d="M14.9999 2.25V5.25M16.4999 3.75H13.4999M2.99988 12.75V14.25M3.74988 13.5H2.24988M7.45258 11.625C7.38562 11.3655 7.25034 11.1286 7.0608 10.939C6.87126 10.7495 6.63439 10.6142 6.37483 10.5473L1.77358 9.36075C1.69508 9.33847 1.62599 9.29119 1.57679 9.22609C1.52759 9.16098 1.50098 9.08161 1.50098 9C1.50098 8.9184 1.52759 8.83902 1.57679 8.77392C1.62599 8.70882 1.69508 8.66154 1.77358 8.63925L6.37483 7.452C6.63429 7.38511 6.8711 7.24993 7.06063 7.06053C7.25017 6.87113 7.38551 6.63442 7.45258 6.375L8.63908 1.77375C8.66114 1.69494 8.70837 1.62551 8.77357 1.57605C8.83878 1.52659 8.91837 1.49982 9.00021 1.49982C9.08205 1.49982 9.16164 1.52659 9.22684 1.57605C9.29204 1.62551 9.33928 1.69494 9.36133 1.77375L10.5471 6.375C10.614 6.63456 10.7493 6.87143 10.9389 7.06097C11.1284 7.25051 11.3653 7.3858 11.6248 7.45275L16.2261 8.6385C16.3052 8.66033 16.375 8.70751 16.4247 8.77281C16.4744 8.83811 16.5014 8.91792 16.5014 9C16.5014 9.08208 16.4744 9.1619 16.4247 9.2272C16.375 9.2925 16.3052 9.33968 16.2261 9.3615L11.6248 10.5473C11.3653 10.6142 11.1284 10.7495 10.9389 10.939C10.7493 11.1286 10.614 11.3655 10.5471 11.625L9.36058 16.2263C9.33853 16.3051 9.2913 16.3745 9.22609 16.424C9.16089 16.4734 9.0813 16.5002 8.99946 16.5002C8.91762 16.5002 8.83803 16.4734 8.77282 16.424C8.70762 16.3745 8.66039 16.3051 8.63833 16.2263L7.45258 11.625Z" stroke="#5F5F5D" style="stroke:#5F5F5D;stroke:color(display-p3 0.3725 0.3725 0.3647);stroke-opacity:1;" stroke-width="1.25" stroke-linecap="round" stroke-linejoin="round"/>
</g>
<defs>
<clipPath id="clip0_35_1102">
<rect width="18" height="18" fill="white" style="fill:white;fill-opacity:1;"/>
</clipPath>
</defs>
</svg>
